<svg width="39" height="49" viewBox="0 0 39 49" fill="none" xmlns="http://www.w3.org/2000/svg">
<g id="outline">
<path id="right lens" d="M29.997 29.2205C29.4767 29.2705 29.1242 28.9835 28.6059 29.2C28.1524 29.3894 27.7744 29.7767 27.4986 30.1738C26.8483 31.1109 26.5778 32.4211 26.6493 33.546C26.7281 34.7832 27.1787 35.3638 28.2897 35.8991C29.2971 36.3847 30.496 36.8421 31.589 36.3849C32.5418 35.9865 33.385 35.2697 34.0124 34.4587C34.5438 33.7716 35.203 32.7176 35.2002 31.809C35.1971 30.8163 33.8893 30.5653 33.1519 30.2519C31.8516 29.6992 30.521 29.2495 29.1189 29.0458C28.8462 29.0062 28.7285 29.4232 29.0037 29.4633C29.9201 29.5964 30.8094 29.8276 31.6821 30.137C32.1309 30.2959 32.5725 30.473 33.0105 30.6597C33.443 30.8441 34.06 31.0118 34.434 31.3C35.1368 31.8415 34.4112 33.062 34.0363 33.6686C33.5881 34.3942 32.9857 35.0271 32.2798 35.506C31.3958 36.1055 30.5895 36.2672 29.5568 35.9401C28.4363 35.5851 27.2503 35.1066 27.1073 33.8154C27.0087 32.9246 27.1407 31.9902 27.4698 31.1543C27.6667 30.6544 27.9867 30.0912 28.4553 29.8003C28.8124 29.5786 29.1375 29.6066 29.5277 29.6217C29.7092 29.6287 29.8033 29.6721 29.997 29.6535C30.272 29.6273 30.2747 29.194 29.997 29.2205Z" fill="#4153FA"/>
<path id="glasses arm" d="M31.6868 31.2575C32.5727 31.8738 33.4485 32.6149 34.4914 32.9431C34.7577 33.0269 34.8718 32.6091 34.6064 32.5255C33.6075 32.2111 32.7544 31.4742 31.9055 30.8834C31.6762 30.7241 31.4595 31.0991 31.6868 31.2575Z" fill="#4153FA"/>
<path id="face in glasses" d="M32.1318 30.139C31.3506 30.8747 31.1043 31.7134 30.8458 32.7222C30.6951 33.3099 30.4824 33.8693 30.1698 34.3916C29.882 34.8726 29.4858 35.2753 29.2304 35.7754C29.1039 36.0231 29.4774 36.2423 29.6043 35.9937C30.0479 35.1249 30.7207 34.4583 31.0609 33.5159C31.4684 32.3876 31.5086 31.3204 32.438 30.4453C32.6414 30.2539 32.3348 29.9481 32.1318 30.139Z" fill="#4153FA"/>
<path id="left lens" d="M18.5962 23.8255C17.7134 23.4888 16.8369 23.27 15.954 23.7347C15.0665 24.2019 14.4984 25.1097 14.1051 26.0013C13.2951 27.8369 13.6072 29.6533 15.3772 30.7098C17.1403 31.7624 19.1902 32.8541 21.242 31.9712C22.1724 31.5706 22.8653 30.8367 23.5007 30.0693C24.0571 29.3973 24.4464 28.5293 24.2954 27.6363C24.1353 26.6891 22.9168 26.1433 22.1737 25.7147C20.9579 25.014 19.6818 24.4148 18.4286 23.7856C18.1804 23.6609 17.9609 24.0342 18.2101 24.1594C19.1635 24.6383 20.1235 25.1063 21.0679 25.6027C21.5152 25.838 21.9586 26.0816 22.3892 26.3466C22.8219 26.6129 23.497 26.9397 23.7622 27.3796C24.4201 28.4707 23.2011 29.8157 22.5109 30.5315C21.7004 31.3718 20.6453 31.9323 19.4522 31.8876C18.3183 31.8452 17.2551 31.2381 16.2759 30.7171C15.2015 30.1453 14.2334 29.5352 14.1044 28.2187C13.9931 27.0835 14.507 25.8807 15.182 24.9887C15.5796 24.463 16.0942 24.0334 16.7613 23.9189C17.3652 23.8156 17.9255 24.0311 18.4811 24.2431C18.7417 24.3425 18.8544 23.9241 18.5962 23.8255Z" fill="#4153FA"/>
<path id="sideburn" d="M6.80503 22.0337C6.01553 23.4148 5.64921 24.9496 5.73711 26.5385C5.7524 26.8156 6.18555 26.8174 6.17011 26.5385C6.08625 25.0222 6.42529 23.5708 7.17886 22.2522C7.31742 22.0099 6.94345 21.7915 6.80503 22.0337Z" fill="#4153FA"/>
<path id="top earring" d="M3.71229 25.4817C3.43372 25.4817 3.43314 25.9147 3.71229 25.9147C3.99085 25.9147 3.99142 25.4817 3.71229 25.4817Z" fill="#F141FA"/>
<path id="middle earring" d="M3.91673 26.2875C3.63817 26.2875 3.6376 26.7205 3.91673 26.7205C4.19544 26.7205 4.19587 26.2875 3.91673 26.2875Z" fill="#F141FA"/>
<path id="bottom earring" d="M4.49407 26.9009C4.2155 26.9009 4.21493 27.3339 4.49407 27.3339C4.77277 27.3339 4.77321 26.9009 4.49407 26.9009Z" fill="#F141FA"/>
<path id="face" d="M9.16942 20.5857C8.73296 20.6593 8.75374 20.6843 8.39406 20.9833C7.94503 21.3569 7.42529 21.6479 6.87048 21.8303C6.3718 21.9943 5.846 22.0712 5.3212 22.0366C5.04696 22.0184 4.77546 21.9699 4.51235 21.8911C4.28806 21.8241 4.05105 21.6291 3.82056 21.6327C2.41041 21.6552 2.3726 24.1336 2.35066 25.052C2.33016 25.9102 2.42716 26.7866 2.82003 27.5622C3.0133 27.944 3.23197 28.2884 3.62787 28.4749C3.9646 28.6335 4.35141 28.6327 4.70142 28.7518C4.8433 28.8001 5.12938 28.9032 5.24989 29.02C5.52398 29.2855 5.25682 29.7373 5.14453 30.0458C5.00062 30.4408 4.91201 30.8555 4.88198 31.2748C4.81069 32.2707 5.10181 33.2211 5.6178 34.0646C5.7311 33.9772 5.84454 33.8897 5.95785 33.8023C5.92681 33.7642 5.89564 33.7261 5.86461 33.6882C5.76257 33.7902 5.66038 33.8923 5.55833 33.9944C5.59124 34.032 5.6243 34.0695 5.65721 34.1071L5.96334 33.8009C5.92552 33.7592 5.8877 33.7177 5.84989 33.6759C5.67178 33.4795 5.41847 33.7295 5.50999 33.9382C6.93802 37.1981 8.68763 40.298 10.3752 43.4271C10.5093 43.6758 10.8651 43.4573 10.749 43.2086C10.6601 43.0177 10.6643 43.0276 10.5142 42.8801C10.3427 42.7116 10.0386 42.9304 10.1741 43.1425C10.8216 44.156 11.3955 45.2567 12.2873 46.0847C13.0143 46.7598 13.9733 47.2548 14.8947 47.6012C16.8454 48.3345 18.9297 48.2142 20.5797 46.8686C20.796 46.6922 20.4879 46.3887 20.2734 46.5624C20.2028 46.6199 20.1322 46.6771 20.0613 46.7343C19.8719 46.888 20.1224 47.2158 20.3237 47.0745C24.0902 44.4256 27.4711 41.2187 29.7731 37.1939C29.9116 36.9515 29.5378 36.7332 29.3993 36.9753C27.1344 40.9352 23.8114 44.0942 20.1051 46.7006C20.1926 46.8139 20.28 46.9273 20.3674 47.0407C20.4383 46.9833 20.509 46.9261 20.5797 46.8686C20.4777 46.7666 20.3755 46.6645 20.2734 46.5624C18.6359 47.898 16.5216 47.8517 14.6523 47.0385C13.7751 46.6568 12.8981 46.1422 12.2518 45.4293C11.5715 44.6791 11.0902 43.7726 10.548 42.9239C10.4347 43.0114 10.3213 43.0989 10.2081 43.1862C10.2638 43.2667 10.3195 43.3469 10.3752 43.4271C10.4997 43.3543 10.6244 43.2815 10.749 43.2086C9.06146 40.0794 7.31185 36.9796 5.88381 33.7198C5.7705 33.8071 5.65721 33.8946 5.54376 33.982C5.58157 34.0238 5.61938 34.0655 5.65721 34.1071C5.84541 34.3148 6.14591 34.0092 5.96334 33.8009C5.93043 33.7633 5.89752 33.7259 5.86461 33.6882C5.67871 33.4762 5.3847 33.7819 5.55833 33.9944C5.58951 34.0325 5.62054 34.0704 5.65158 34.1085C5.80846 34.3003 6.11806 34.0528 5.99162 33.8461C5.39495 32.8705 5.14511 31.7541 5.41906 30.6275C5.54866 30.094 6.08746 29.409 5.71031 28.8644C5.38816 28.3993 4.67154 28.3303 4.18485 28.1897C2.99309 27.8454 2.78178 26.3438 2.78035 25.2757C2.77933 24.4692 2.81152 23.5456 3.11693 22.7871C3.35392 22.1992 3.63104 22.0926 4.1837 22.2385C4.56388 22.3389 4.92615 22.4443 5.3212 22.4696C6.04878 22.5161 6.78041 22.3623 7.4455 22.071C8.09355 21.7873 8.63394 21.113 9.2846 21.0032C9.55869 20.9569 9.4425 20.5397 9.16942 20.5857Z" fill="#4153FA"/>
<path id="curls" d="M23.3927 15.4693C22.9028 14.449 22.3685 13.3262 22.6187 12.1642C22.8317 11.1739 23.5367 10.3685 24.4748 10.0033C25.4477 9.62462 26.5233 9.68885 27.5478 9.71483C28.5532 9.74037 29.5586 9.76909 30.5643 9.79277C31.4209 9.81298 32.302 9.83361 33.1361 9.60311C33.5386 9.49197 33.9067 9.31892 34.3123 9.21558C35.1135 9.01177 35.9145 8.80798 36.7156 8.60418C36.6601 8.47211 36.6043 8.34019 36.5488 8.20841C32.3785 10.5156 28.3921 6.63243 24.5503 5.50966C23.1016 5.08633 21.4415 5.4053 20.9302 7.00914C20.4268 8.58888 21.7012 9.88226 22.8817 10.7117C23.1103 10.8722 23.3269 10.497 23.1004 10.3378C22.3935 9.84112 21.6297 9.20981 21.3578 8.35448C21.061 7.42035 21.4764 6.38259 22.3632 5.94035C23.2765 5.48498 24.3845 5.87035 25.2639 6.22007C26.1624 6.57759 27.0236 7.02329 27.887 7.45702C30.6125 8.8266 33.8361 10.204 36.7672 8.58223C36.9849 8.46186 36.8361 8.12658 36.6005 8.18647C35.7092 8.41336 34.8039 8.60951 33.9214 8.86831C33.1282 9.10083 32.4279 9.34518 31.5815 9.36813C30.4225 9.3996 29.2551 9.32599 28.0963 9.29597C26.2583 9.24848 24.0944 9.0633 22.8387 10.6951C21.6239 12.2737 22.2426 14.071 23.0188 15.6878C23.1393 15.939 23.5128 15.7195 23.3927 15.4693Z" fill="#4153FA"/>
<path id="bottom hair stroke" d="M8.70434 14.7697C10.2083 15.1381 11.7458 15.1693 13.2766 14.9563C14.4891 14.7874 15.7037 14.5078 16.6198 13.6476C16.8233 13.4563 16.5166 13.1506 16.3135 13.3413C15.3641 14.2331 13.9946 14.4571 12.7444 14.5894C11.4256 14.7286 10.1096 14.6682 8.81952 14.3522C8.5489 14.286 8.43344 14.7035 8.70434 14.7697Z" fill="#4153FA"/>
<path id="middle hair stroke" d="M8.79646 10.4391C9.94666 11.9167 11.952 12.4744 13.6987 12.8808C15.6305 13.3304 17.7173 13.361 19.398 12.1723C19.6238 12.0125 19.4078 11.637 19.1796 11.7983C17.5079 12.9807 15.4488 12.8756 13.5468 12.3982C11.9412 11.9951 10.1616 11.4933 9.1026 10.1329C8.9317 9.91333 8.6273 10.2218 8.79646 10.4391Z" fill="#4153FA"/>
<path id="top hair stroke" d="M21.2493 3.04978C20.5107 4.60266 18.7891 5.5147 17.3364 6.30075C15.5318 7.27717 13.5338 7.69833 11.5079 7.90127C11.2332 7.92883 11.2303 8.36212 11.5079 8.33427C13.6108 8.12368 15.6818 7.68823 17.555 6.67457C19.0702 5.85476 20.8516 4.89061 21.6232 3.26829C21.7423 3.01802 21.369 2.79805 21.2493 3.04978Z" fill="#4153FA"/>
<path id="cheek" d="M7.7208 31.9649C8.69231 31.8654 9.08995 33.1647 9.3128 33.8934C9.52583 34.5897 9.61576 35.3032 9.61763 36.03C9.61822 36.3086 10.0512 36.3092 10.0506 36.03C10.0475 34.7293 9.62153 31.3371 7.7208 31.5319C7.44628 31.5599 7.44339 31.9931 7.7208 31.9649Z" fill="#4153FA"/>
<path id="hair" d="M29.0836 13.7313C28.6974 15.0303 28.0361 16.2211 27.098 17.204C26.1248 18.2238 24.8973 18.8007 23.5517 19.1734C22.0351 19.5935 20.5041 19.6413 18.9545 19.4674C16.3703 19.1772 13.7858 18.887 11.2012 18.5967C10.9716 18.571 10.6025 18.4537 10.373 18.5038C10.0252 18.5796 9.73508 19.0613 9.5333 19.3261C9.20927 19.7509 8.93128 20.2058 8.63857 20.6517C8.48515 20.8855 8.85955 21.1021 9.0124 20.8703C9.2852 20.4567 9.54124 20.0317 9.82096 19.6227C10.06 19.2731 10.4715 18.5378 10.9388 18.5408C11.1583 18.5421 11.4744 18.7256 11.6872 18.7928C11.9791 18.8851 12.2731 18.9699 12.5688 19.0491C13.1167 19.1959 13.6701 19.3216 14.2272 19.4284C16.4031 19.8459 18.6219 19.9841 20.8333 20.0284C21.9797 20.0515 23.1263 20.0489 24.2726 20.0466C25.3675 20.0445 26.3692 20.4243 27.4598 20.4699C29.4179 20.552 31.33 19.8145 32.9045 18.6857C34.821 17.3116 35.9464 15.1309 37.2002 13.1827C37.3517 12.9473 36.9784 12.7317 36.8264 12.9641C36.4075 13.6045 35.9888 14.2448 35.5699 14.8852C35.3099 15.2829 35.0498 15.6803 34.7897 16.0782C34.5554 16.4364 34.5818 16.6611 34.5883 17.1349C34.6028 18.1987 34.7481 19.2588 34.7011 20.3234C34.652 21.4298 34.4237 22.5186 34.1727 23.5942C33.9448 24.5702 33.6766 25.5421 33.5174 26.5326C33.3708 27.4434 33.4833 28.4551 32.8935 29.223C33.018 29.2958 33.1427 29.3687 33.2673 29.4416C33.3201 29.3209 33.3765 29.2021 33.4369 29.0849C33.3122 29.0121 33.1876 28.9393 33.0629 28.8664C33.0076 28.9859 32.9512 29.1047 32.8935 29.223C33.0278 29.2594 33.1624 29.2958 33.2968 29.3323C33.223 28.4254 33.4938 27.6551 34.1822 27.054C34.7063 26.5963 35.2774 26.1941 35.7966 25.7283C36.7565 24.8669 37.6288 23.8871 38.2182 22.7315C39.3826 20.4487 39.1488 17.6255 38.1576 15.3286C38.0169 15.0026 37.8615 14.6833 37.6895 14.3724C37.5596 14.1377 37.2575 13.8196 37.1945 13.5638C37.131 13.3053 37.3032 13.0627 37.3958 12.8264C37.5548 12.4213 37.6861 12.0058 37.803 11.5867C37.9828 10.942 38.2356 10.2094 38.2883 9.54053C38.3179 9.1641 38.1904 8.82261 37.8718 8.60668C37.3683 8.26504 36.5824 8.26648 36.0039 8.14987C35.1148 7.97074 34.3261 7.58061 33.6341 6.99765C32.7422 6.24582 31.8134 5.60108 30.8346 4.97221C29.1186 3.87008 27.4538 2.63559 25.6456 1.68659C25.3993 1.55728 25.1809 1.92821 25.427 2.06043C25.456 2.07615 25.4853 2.09174 25.5144 2.10733C25.7599 2.23926 25.9787 1.86572 25.7329 1.73351C25.7037 1.71792 25.6747 1.70218 25.6456 1.68659C25.3995 1.55439 25.1917 1.91089 25.427 2.06043C26.2794 2.60254 27.5954 3.15722 28.6333 3.00957C28.8294 2.98156 29.056 2.92311 29.0883 2.69275C29.1447 2.28905 28.4351 2.01467 28.192 1.89617C26.7978 1.21621 25.2264 1.2738 23.7154 1.27756C21.9716 1.28189 19.82 1.12095 18.3717 0.0410495C18.1639 -0.113821 17.9581 0.207033 18.1093 0.3811C18.1295 0.404482 18.1499 0.427864 18.1701 0.451102V0.14497L18.1615 0.152042C18.2747 0.166764 18.388 0.181341 18.5015 0.195919C18.4841 0.170228 18.4667 0.144536 18.4494 0.1187C18.3361 0.206166 18.2226 0.293634 18.1093 0.3811C18.4492 0.680882 18.7317 1.03421 18.8523 1.48092C18.9541 1.8585 18.9996 2.56285 18.5746 2.70444C18.25 2.81269 17.6178 2.61683 17.2697 2.5806C16.7835 2.53008 16.2976 2.47553 15.8117 2.42169C14.9409 2.32513 14.0619 2.19869 13.1863 2.15799C12.4184 2.1222 11.6432 2.41447 11.0837 1.71706C10.9262 1.52075 10.6271 1.77175 10.7437 1.97945C11.0509 2.52663 11.4946 2.912 12.0078 3.26186C12.0442 3.12748 12.0806 2.99297 12.1172 2.85845C11.8966 2.86667 11.628 2.83001 11.4127 2.87707C11.1426 2.93625 10.8366 3.14466 10.5574 3.248C9.92907 3.48052 9.35418 3.93749 8.84078 4.3598C8.22795 4.86382 7.67428 5.43581 7.16507 6.04361C6.71157 6.585 6.07997 7.23407 5.79851 7.884C5.50494 8.56223 5.43003 9.38608 5.17745 10.0922C4.88084 10.9213 4.51236 11.7233 4.09639 12.4991C3.79025 13.0699 3.28711 13.6523 3.19156 14.3026C3.11564 14.8192 3.00262 15.2491 2.3768 15.2375C2.04742 15.2314 1.72037 15.171 1.39142 15.1537C1.14491 15.1407 1.10117 15.5157 1.33384 15.5789C1.81289 15.709 3.47633 16.3285 2.35485 16.9573C1.79282 17.2724 0.82232 17.0375 0.212365 17.0083C-0.013373 16.9974 -0.0670645 17.3011 0.10296 17.4116C0.261151 17.5144 0.2548 17.5138 0.440847 17.5441C0.666297 17.5809 0.84065 17.2735 0.607695 17.1483C0.462496 17.0704 0.429878 17.056 0.269812 17.0158C0.231563 17.1551 0.193171 17.2943 0.154778 17.4335C1.42289 17.7189 1.37512 19.0011 1.48684 20.0467C1.60519 21.1545 1.96718 22.1854 2.62981 23.0846C2.79334 23.3065 3.16933 23.0907 3.00364 22.866C2.54437 22.2428 2.22235 21.5583 2.04714 20.802C1.90079 20.1702 1.91045 19.5253 1.8087 18.8881C1.6612 17.9653 1.2266 17.2314 0.269812 17.0158C-0.000958698 16.955 -0.116714 17.3655 0.154778 17.4335C0.232863 17.463 0.31109 17.4928 0.389176 17.5223C0.444888 17.3904 0.500457 17.2585 0.556026 17.1266C0.477941 17.097 0.399712 17.0674 0.321626 17.0378C0.28511 17.1721 0.248737 17.3067 0.212365 17.4413C1.00418 17.4791 2.84155 17.8154 3.24467 16.758C3.60017 15.8253 2.0708 15.3302 1.44901 15.1613C1.42982 15.3032 1.41063 15.4449 1.39142 15.5867C1.92099 15.6146 2.56414 15.8042 3.0745 15.5791C3.52656 15.3797 3.54258 14.9972 3.60219 14.5645C3.71881 13.7172 4.37236 12.9344 4.75325 12.1697C5.10716 11.4593 5.41965 10.7271 5.67583 9.97569C5.9596 9.1436 6.05327 8.25205 6.56825 7.5262C7.08411 6.79919 7.64412 6.1022 8.27139 5.46801C9.27898 4.44944 10.6405 3.34587 12.1172 3.29145C12.3386 3.28322 12.4027 3.00827 12.2264 2.88803C11.7701 2.57686 11.3915 2.24863 11.1175 1.76093C11.0042 1.8484 10.8909 1.93572 10.7776 2.02319C11.5115 2.93855 12.8057 2.55145 13.8328 2.64714C15.5007 2.80216 17.1614 3.02429 18.8313 3.15808C18.9056 3.16401 18.9818 3.11262 19.0182 3.0507C19.6315 2.00803 19.2916 0.847587 18.4154 0.0749681C18.2414 -0.0786032 17.93 0.122022 18.0754 0.337368C18.0928 0.363059 18.1102 0.38875 18.1275 0.414442C18.2108 0.537703 18.3557 0.550838 18.4676 0.458319C18.4704 0.455865 18.4733 0.453411 18.4763 0.451102C18.5708 0.372873 18.547 0.226519 18.4763 0.14497C18.456 0.121588 18.4358 0.0982062 18.4154 0.0749681L18.1533 0.415019C20.1352 1.89285 22.8978 1.64633 25.2179 1.71517C25.8778 1.73466 26.5393 1.79311 27.177 1.97209C27.5249 2.06966 27.8624 2.2023 28.179 2.3768C28.3487 2.47019 28.8178 2.57844 28.483 2.58407C27.5188 2.60038 26.4457 2.19552 25.6456 1.68659C25.5727 1.81116 25.4998 1.93586 25.427 2.06043C25.456 2.07615 25.4853 2.09174 25.5144 2.10733C25.7599 2.23926 25.9787 1.86572 25.7329 1.73351C25.7037 1.71792 25.6747 1.70218 25.6456 1.68659C25.5727 1.81116 25.4998 1.93586 25.427 2.06043C27.3603 3.07495 29.1101 4.42086 30.9647 5.56658C32.5195 6.52698 33.727 8.00943 35.5326 8.48948C35.9782 8.60784 36.44 8.65634 36.8902 8.75333C37.3262 8.84729 37.7821 8.96723 37.8321 9.45826C37.8566 9.69712 37.7557 9.95505 37.7028 10.1869C37.4539 11.2783 37.1722 12.3554 36.6862 13.3687C36.6538 13.4358 36.6404 13.521 36.6862 13.5871C38.5006 16.2181 39.3324 19.8896 37.683 22.8119C36.9473 24.1153 35.8509 25.1557 34.7017 26.0939C34.1793 26.5202 33.5954 26.8709 33.2491 27.4665C32.9178 28.0366 32.8108 28.682 32.8638 29.3323C32.8797 29.526 33.1656 29.6523 33.2673 29.4416C33.325 29.3234 33.3815 29.2044 33.4369 29.0849C33.5539 28.8354 33.1875 28.615 33.0629 28.8664C33.0027 28.9835 32.9463 29.1025 32.8935 29.223C32.7759 29.4805 33.0984 29.6614 33.2673 29.4416C33.7444 28.8205 33.7813 28.1035 33.8492 27.3503C33.9444 26.2944 34.2191 25.2656 34.4649 24.2372C34.6894 23.2982 34.9095 22.3569 35.0351 21.3989C35.1797 20.2961 35.1249 19.2174 35.0612 18.1115C35.0279 17.5314 34.8711 16.8424 35.143 16.328C35.346 15.9445 35.6292 15.585 35.8663 15.2221C36.311 14.5423 36.7555 13.8625 37.2002 13.1827C37.0756 13.1097 36.9511 13.0369 36.8264 12.9641C36.1811 13.967 35.5535 14.9822 34.8737 15.9623C34.1124 17.0602 33.33 17.9211 32.1965 18.6441C31.2291 19.2613 30.1565 19.7249 29.0238 19.9293C28.4316 20.0362 27.8246 20.0692 27.2246 20.0232C26.5719 19.973 26.0122 19.7128 25.3837 19.6198C24.269 19.4548 23.0226 19.6199 21.8927 19.6102C20.6584 19.5993 19.4238 19.5697 18.1922 19.4863C15.6736 19.3157 13.1821 18.9046 10.8062 18.0321C10.7317 18.0048 10.6509 18.0393 10.5955 18.0878C9.76626 18.8135 9.23828 19.7419 8.63857 20.6517C8.76314 20.7247 8.88784 20.7976 9.0124 20.8703C9.26138 20.4911 9.49737 20.1036 9.76438 19.7364C9.90193 19.5474 10.2519 19.0015 10.4184 18.9418C10.648 18.8596 11.191 19.0286 11.427 19.0552C12.82 19.2115 14.2129 19.3679 15.6059 19.5244C18.5843 19.8588 21.4692 20.3887 24.3958 19.3625C26.9606 18.4632 28.7304 16.439 29.5011 13.8463C29.5807 13.5787 29.163 13.4644 29.0836 13.7313Z" fill="#4153FA"/>
<path id="glare" d="M33.6642 33.0316C33.4846 33.5041 32.9359 33.9249 32.5657 34.2518C32.2101 34.5657 31.8273 34.9775 31.3971 35.178C31.1447 35.2956 31.3645 35.6689 31.6157 35.5518C32.127 35.3138 32.58 34.823 32.9947 34.4485C33.3975 34.0848 33.8845 33.6656 34.0818 33.1468C34.1808 32.886 33.7624 32.7732 33.6642 33.0316Z" fill="#F141FA"/>
<path id="glasses" d="M9.16928 20.6884C10.2519 21.7074 11.3059 22.756 12.3241 23.8394C12.6011 24.1339 12.9387 24.4036 13.0426 24.7998C13.1383 25.1636 13.0002 25.3713 12.8963 25.7285C12.7084 26.3743 12.6021 27.0562 12.6244 27.7298C12.6995 29.9988 14.314 31.6456 16.2924 32.5362C18.1694 33.3814 20.7078 33.8461 22.3743 32.3213C23.2418 31.5277 23.7206 30.2453 24.7667 29.6581C25.3498 29.3307 26.112 29.4486 26.2004 30.2267C26.236 30.5406 26.1565 30.87 26.0956 31.1754C25.9634 31.8392 25.8383 32.486 25.8062 33.1646C25.7613 34.1223 25.6519 35.4022 26.5324 36.0086C27.5203 36.6893 28.7223 37.2437 29.9211 37.3871C31.027 37.5195 32.1295 37.2879 33.0219 36.6072C33.9674 35.8858 34.6042 34.8493 35.4917 34.0656C36.214 33.4277 36.9651 32.7738 36.682 31.704C36.4213 30.7188 35.5304 30.1602 34.6449 29.7959C33.3281 29.2541 31.935 28.8606 30.546 28.5557C29.0791 28.2342 27.5305 28.0988 26.1786 27.3968C24.8753 26.7197 23.8307 25.6618 22.6295 24.8326C21.4743 24.0351 20.1774 23.5951 18.8293 23.2433C17.319 22.8491 15.8323 22.4932 14.4474 21.7466C12.9375 20.9323 11.4682 20.0347 9.98346 19.1756C9.74171 19.036 9.52347 19.4099 9.7648 19.5495C11.9636 20.8215 14.1472 22.3621 16.5976 23.1004C17.7603 23.4509 18.9579 23.6778 20.1097 24.066C21.3932 24.4985 22.4502 25.1972 23.5036 26.0329C24.3809 26.7289 25.2511 27.4584 26.2782 27.9268C27.4218 28.4484 28.6724 28.6171 29.8938 28.8612C31.3079 29.1437 38.2548 30.5709 35.8741 33.141C35.5441 33.4974 35.1392 33.7794 34.7972 34.1246C34.39 34.5358 34.0317 34.9919 33.6437 35.4204C32.7052 36.4566 31.6112 37.0884 30.1691 36.9793C29.4668 36.926 28.7781 36.7044 28.1419 36.4103C27.5783 36.1497 26.7503 35.8127 26.442 35.268C26.1134 34.6877 26.2059 33.684 26.2455 33.0297C26.2878 32.3335 26.4554 31.6715 26.5722 30.9886C26.6882 30.3079 26.6823 29.439 25.9422 29.1137C25.1357 28.759 24.2865 29.378 23.7681 29.9435C23.0125 30.7675 22.5044 31.8559 21.5045 32.4276C20.3834 33.0692 18.9925 32.9515 17.7935 32.6202C14.9842 31.8443 12.5872 29.7132 13.1433 26.5643C13.2394 26.0199 13.6276 25.3748 13.5763 24.8267C13.5302 24.3349 13.0392 23.9693 12.7229 23.6317C11.6758 22.5135 10.591 21.432 9.47541 20.3822C9.27261 20.1914 8.96577 20.4969 9.16928 20.6884Z" fill="#4153FA"/>
</g>
</svg>
